<svg xmlns="http://www.w3.org/2000/svg" xmlns:xlink="http://www.w3.org/1999/xlink" viewBox="0 0 595.276 841.89" style=" 
	fill:none;
	stroke: rgba(255, 255, 255, 0.2);
">
	<path d="M297.638,979.676h-0.001c-308.578,0-558.73-250.152-558.73-558.73v-0.001
			c0-308.578,250.152-558.73,558.73-558.73h0.001c308.578,0,558.73,250.152,558.73,558.73v0.001
			C856.369,729.524,606.217,979.676,297.638,979.676z" />
	<path d="M297.638,928.882h-0.001c-280.526,0-507.937-227.411-507.937-507.937v-0.001
			c0-280.526,227.411-507.937,507.937-507.937h0.001c280.526,0,507.937,227.411,507.937,507.937v0.001
			C805.575,701.471,578.164,928.882,297.638,928.882z" />
	<path d="M297.638,882.706L297.638,882.706c-255.024,0-461.761-206.737-461.761-461.761v-0.001
			c0-255.023,206.737-461.761,461.761-461.761h0.001c255.023,0,461.761,206.737,461.761,461.761v0.001
			C759.399,675.969,552.662,882.706,297.638,882.706z" />
	<path d="M297.638,840.728L297.638,840.728c-231.84,0-419.783-187.943-419.783-419.782v-0.001
			c0-231.839,187.943-419.782,419.782-419.782h0.001c231.839,0,419.782,187.943,419.782,419.782v0.001
			C717.421,652.785,529.478,840.728,297.638,840.728z" />
	<path d="M297.638,802.566L297.638,802.566c-210.764,0-381.621-170.857-381.621-381.62v-0.001
			c0-210.763,170.857-381.62,381.62-381.62h0.001c210.763,0,381.62,170.857,381.62,381.62v0.001
			C679.258,631.708,508.401,802.566,297.638,802.566z" />
	<path d="M297.638,767.873L297.638,767.873c-191.603,0-346.928-155.325-346.928-346.928v-0.001
			c0-191.603,155.325-346.928,346.928-346.928h0.001c191.603,0,346.928,155.325,346.928,346.928v0.001
			C644.566,612.548,489.241,767.873,297.638,767.873z" />
	<path d="M297.638,736.334L297.638,736.334c-174.185,0-315.389-141.204-315.389-315.389v-0.001
			c0-174.184,141.204-315.389,315.389-315.389h0.001c174.184,0,315.389,141.204,315.389,315.389v0.001
			C613.027,595.13,471.822,736.334,297.638,736.334z" />
	<path d="M297.638,707.662L297.638,707.662c-158.35,0-286.718-128.368-286.718-286.717v-0.001
			c0-158.349,128.368-286.717,286.717-286.717h0.001c158.349,0,286.717,128.368,286.717,286.717v0.001
			C584.355,579.295,455.987,707.662,297.638,707.662z" />
	<path d="M297.638,681.597L297.638,681.597c-143.955,0-260.652-116.698-260.652-260.652v-0.001
			c0-143.954,116.698-260.652,260.652-260.652h0.001c143.954,0,260.652,116.698,260.652,260.652v0.001
			C558.29,564.899,441.592,681.597,297.638,681.597z" />
	<path d="M297.638,657.901L297.638,657.901c-130.868,0-236.957-106.089-236.957-236.956v0
			c0-130.867,106.089-236.956,236.956-236.956h0c130.867,0,236.956,106.089,236.956,236.956v0
			C534.594,551.812,428.505,657.901,297.638,657.901z" />
	<path d="M297.638,636.36L297.638,636.36c-118.971,0-215.415-96.444-215.415-215.415v0
			c0-118.97,96.444-215.415,215.415-215.415h0c118.97,0,215.415,96.444,215.415,215.415v0
			C513.053,539.915,416.608,636.36,297.638,636.36z" />
	<path d="M297.638,616.777L297.638,616.777c-108.155,0-195.832-87.677-195.832-195.832v0
			c0-108.155,87.677-195.832,195.832-195.832h0c108.155,0,195.832,87.677,195.832,195.832v0
			C493.47,529.1,405.793,616.777,297.638,616.777z" />
	<path d="M297.638,598.974L297.638,598.974c-98.323,0-178.029-79.706-178.029-178.029v0
			c0-98.323,79.706-178.029,178.029-178.029h0c98.323,0,178.029,79.706,178.029,178.029v0
			C475.667,519.268,395.96,598.974,297.638,598.974z" />
	<path d="M297.638,582.789L297.638,582.789c-89.384,0-161.845-72.46-161.845-161.844v0
			c0-89.384,72.46-161.844,161.844-161.844h0c89.384,0,161.844,72.46,161.844,161.844v0
			C459.482,510.329,387.022,582.789,297.638,582.789z" />
	<path d="M297.638,568.076L297.638,568.076c-81.259,0-147.131-65.873-147.131-147.131v0
			c0-81.258,65.873-147.131,147.131-147.131h0c81.258,0,147.131,65.873,147.131,147.131v0
			C444.769,502.203,378.896,568.076,297.638,568.076z" />
	<path d="M297.638,554.701L297.638,554.701c-73.871,0-133.756-59.884-133.756-133.756v0
			c0-73.871,59.884-133.756,133.756-133.756h0c73.871,0,133.756,59.884,133.756,133.756v0
			C431.393,494.816,371.509,554.701,297.638,554.701z" />
	<path d="M297.638,542.541L297.638,542.541c-67.156,0-121.596-54.44-121.596-121.596v0
			c0-67.156,54.44-121.596,121.596-121.596h0c67.156,0,121.596,54.44,121.596,121.596v0
			C419.234,488.101,364.794,542.541,297.638,542.541z" />
	<path d="M297.638,531.487L297.638,531.487c-61.051,0-110.542-49.491-110.542-110.542v0
			c0-61.051,49.491-110.542,110.542-110.542h0c61.051,0,110.542,49.491,110.542,110.542v0
			C408.18,481.996,358.688,531.487,297.638,531.487z" />
	<path d="M297.638,521.438L297.638,521.438c-55.501,0-100.493-44.992-100.493-100.493v0
			c0-55.501,44.992-100.493,100.493-100.493h0c55.5,0,100.493,44.992,100.493,100.493v0
			C398.13,476.445,353.138,521.438,297.638,521.438z" />
	<path d="M297.638,512.302L297.638,512.302c-50.455,0-91.357-40.902-91.357-91.357v0
			c0-50.455,40.902-91.357,91.357-91.357h0c50.455,0,91.357,40.902,91.357,91.357v0C388.995,471.4,348.093,512.302,297.638,512.302z
			" />
	<path d="M297.638,503.997L297.638,503.997c-45.868,0-83.052-37.184-83.052-83.052v0
			c0-45.868,37.184-83.052,83.052-83.052h0c45.868,0,83.052,37.184,83.052,83.052v0C380.69,466.813,343.506,503.997,297.638,503.997
			z" />
	<path d="M297.638,496.447L297.638,496.447c-41.699,0-75.502-33.803-75.502-75.502v0
			c0-41.698,33.803-75.502,75.502-75.502h0c41.698,0,75.502,33.803,75.502,75.502v0
			C373.139,462.643,339.336,496.447,297.638,496.447z" />
	<path d="M297.638,489.583L297.638,489.583c-37.908,0-68.638-30.73-68.638-68.638v0
			c0-37.908,30.73-68.638,68.638-68.638h0c37.908,0,68.638,30.73,68.638,68.638v0C366.276,458.853,335.545,489.583,297.638,489.583z
			" />
	<path d="M297.638,483.343L297.638,483.343c-34.462,0-62.398-27.936-62.398-62.398v0
			c0-34.461,27.937-62.398,62.398-62.398h0c34.461,0,62.398,27.937,62.398,62.398v0
			C360.036,455.406,332.099,483.343,297.638,483.343z" />
	<path d="M297.638,477.67L297.638,477.67c-31.329,0-56.726-25.397-56.726-56.725v0
			c0-31.329,25.397-56.725,56.725-56.725h0c31.329,0,56.725,25.397,56.725,56.725v0C354.363,452.274,328.966,477.67,297.638,477.67z
			" />
	<path d="M297.638,472.513L297.638,472.513c-28.481,0-51.569-23.088-51.569-51.569v0
			c0-28.481,23.088-51.569,51.569-51.569h0c28.481,0,51.569,23.088,51.569,51.569v0
			C349.206,449.425,326.118,472.513,297.638,472.513z" />
	<path class="st0"
		d="M297.638,467.825L297.638,467.825c-25.891,0-46.881-20.989-46.881-46.881v0
			c0-25.891,20.989-46.88,46.881-46.88h0c25.891,0,46.88,20.989,46.88,46.88v0C344.518,446.836,323.529,467.825,297.638,467.825z" />
	<path d="M297.638,463.564L297.638,463.564c-23.538,0-42.619-19.081-42.619-42.619v0
			c0-23.538,19.081-42.619,42.619-42.619h0c23.538,0,42.619,19.081,42.619,42.619v0
			C340.257,444.483,321.175,463.564,297.638,463.564z" />
	<path d="M297.638,459.689L297.638,459.689c-21.398,0-38.744-17.346-38.744-38.744v0
			c0-21.398,17.346-38.744,38.744-38.744h0c21.398,0,38.744,17.346,38.744,38.744v0
			C336.382,442.343,319.036,459.689,297.638,459.689z" />
	<path d="M297.638,456.167L297.638,456.167c-19.453,0-35.222-15.769-35.222-35.222v0
			c0-19.453,15.769-35.222,35.222-35.222h0c19.453,0,35.222,15.769,35.222,35.222v0C332.86,440.397,317.09,456.167,297.638,456.167z
			" />
	<path d="M297.638,452.965L297.638,452.965c-17.684,0-32.02-14.336-32.02-32.02v0c0-17.684,14.336-32.02,32.02-32.02h0
			c17.684,0,32.02,14.336,32.02,32.02v0C329.658,438.629,315.322,452.965,297.638,452.965z" />
</svg>