<?xml version="1.0" encoding="utf-8"?>
<!-- Generator: Adobe Illustrator 24.1.0, SVG Export Plug-In . SVG Version: 6.00 Build 0)  -->
<svg version="1.1" id="Livello_1" xmlns="http://www.w3.org/2000/svg" xmlns:xlink="http://www.w3.org/1999/xlink" x="0px" y="0px"
	 viewBox="0 0 595.276 841.89" style="enable-background:new 0 0 595.276 841.89;" xml:space="preserve">
<style type="text/css">
	.st0{fill:none;stroke:rgba(255, 255, 255, 0.2);stroke-miterlimit:10;}
</style>
<g>
	<g>
		<path class="st0" d="M297.638,420.945c21.386-25.411,89.664-99.781,202.877-120.173
			c186.115-33.524,320.188,110.074,329.308,120.173"/>
		<path class="st0" d="M297.663,420.976c23.313-23.655,97.216-92.438,211.68-103.885c188.171-18.818,310.565,134.856,318.864,145.64
			"/>
		<path class="st0" d="M297.685,421.009c25.098-21.752,104.169-84.526,219.179-86.957
			c189.067-3.996,299.027,158.807,306.454,170.209"/>
		<path class="st0" d="M297.705,421.043c26.727-19.716,110.48-76.092,225.326-69.492c188.798,10.85,285.645,181.779,292.155,193.728
			"/>
		<path class="st0" d="M297.723,421.079c28.191-17.559,116.109-67.19,230.083-51.599C715.171,395.11,798.308,573.11,803.86,585.534"
			/>
		<path class="st0" d="M297.737,421.117c29.482-15.293,121.023-57.873,233.422-33.388
			c184.776,40.251,253.692,224.226,258.252,237.046"/>
		<path class="st0" d="M297.748,421.155c30.591-12.932,125.19-48.199,235.322-14.971
			c181.049,54.624,235.318,243.439,238.858,256.578"/>
		<path class="st0" d="M297.757,421.194c31.511-10.492,128.586-38.228,235.772,3.538c176.205,68.661,215.492,261.151,217.99,274.527
			"/>
		<path class="st0" d="M297.762,421.234c32.237-7.988,131.189-28.021,234.767,22.026
			c170.275,82.274,194.338,277.253,195.779,290.784"/>
		<path class="st0" d="M297.764,421.274c32.765-5.434,132.983-17.642,232.315,40.378C693.374,557.031,702.065,753.298,702.44,766.9"
			/>
		<path class="st0" d="M297.763,421.314c33.09-2.846,133.957-7.154,228.431,58.48c155.308,107.898,148.573,304.241,147.88,317.831"
			/>
		<path class="st0" d="M297.758,421.353c33.211-0.241,134.106,3.378,223.139,76.223c146.363,119.751,124.245,314.96,122.488,328.454
			"/>
		<path class="st0" d="M297.751,421.392c33.128,2.365,133.427,13.89,216.47,93.495c136.517,130.865,99.151,323.738,96.34,337.052"/>
		<path class="st0" d="M297.741,421.431c32.84,4.957,131.926,24.316,208.468,110.191c125.828,141.173,73.445,330.519,69.598,343.571
			"/>
		<path class="st0" d="M297.727,421.469c32.35,7.519,129.612,34.591,199.18,126.207c114.364,150.61,47.286,335.262,42.427,347.973"
			/>
		<path class="st0" d="M297.711,421.505c31.66,10.034,126.498,44.654,188.663,141.446C588.57,722.069,507.211,900.89,501.369,913.18
			"/>
		<path class="st0" d="M297.692,421.54c30.776,12.487,122.605,54.441,176.984,155.812c89.396,166.646-5.743,338.532-12.53,350.326"
			/>
		<path class="st0" d="M297.67,421.574c29.701,14.863,117.955,63.893,164.214,169.218c76.045,173.146-32.286,337.038-39.978,348.263
			"/>
		<path class="st0" d="M297.646,421.605c28.443,17.147,112.579,72.951,150.431,181.58c62.226,178.579-58.63,333.466-67.179,344.053"
			/>
		<path class="st0" d="M297.619,421.635c27.01,19.326,106.508,81.559,135.72,192.823c48.023,182.911-84.613,327.838-93.966,337.721"
			/>
		<path class="st0" d="M297.59,421.663c25.411,21.386,99.781,89.664,120.173,202.877C451.288,810.654,307.69,944.728,297.59,953.847
			"/>
		<path class="st0" d="M297.559,421.688c23.655,23.313,92.438,97.216,103.885,211.68c18.818,188.171-134.856,310.565-145.64,318.864
			"/>
		<path class="st0" d="M297.526,421.71c21.752,25.098,84.526,104.169,86.957,219.179c3.996,189.067-158.807,299.027-170.209,306.454
			"/>
		<path class="st0" d="M297.492,421.73c19.716,26.727,76.092,110.48,69.492,225.326c-10.85,188.798-181.779,285.645-193.728,292.155
			"/>
		<path class="st0" d="M297.456,421.747c17.559,28.191,67.19,116.109,51.599,230.083
			c-25.629,187.365-203.63,270.503-216.053,276.055"/>
		<path class="st0" d="M297.418,421.762c15.293,29.482,57.873,121.023,33.388,233.422C290.555,839.96,106.581,908.876,93.76,913.436
			"/>
		<path class="st0" d="M297.38,421.773c12.932,30.591,48.199,125.19,14.971,235.322C257.727,838.144,68.912,892.413,55.773,895.953"
			/>
		<path class="st0" d="M297.341,421.781c10.492,31.511,38.228,128.586-3.538,235.772C225.142,833.758,32.651,873.045,19.275,875.543
			"/>
		<path class="st0" d="M297.301,421.786c7.988,32.237,28.021,131.189-22.026,234.767C193.002,826.828-1.978,850.892-15.509,852.333"
			/>
		<path class="st0" d="M297.262,421.788c5.434,32.765,17.642,132.983-40.378,232.315C161.504,817.398-34.762,826.09-48.365,826.465"
			/>
		<path class="st0" d="M297.222,421.787c2.846,33.09,7.154,133.957-58.48,228.431C130.843,805.526-65.5,798.792-79.09,798.099"/>
		<path class="st0" d="M297.182,421.783c0.241,33.211-3.378,134.106-76.223,223.139C101.209,791.285-94.001,769.167-107.494,767.41"
			/>
		<path class="st0" d="M297.143,421.776c-2.365,33.128-13.89,133.427-93.495,216.47c-130.865,136.517-323.737,99.151-337.052,96.34"
			/>
		<path class="st0" d="M297.104,421.766c-4.957,32.84-24.316,131.926-110.191,208.468
			c-141.173,125.828-330.519,73.445-343.571,69.598"/>
		<path class="st0" d="M297.066,421.752c-7.519,32.35-34.591,129.612-126.207,199.18c-150.61,114.364-335.262,47.286-347.973,42.427
			"/>
		<path class="st0" d="M297.03,421.736c-10.034,31.66-44.654,126.498-141.446,188.663
			c-159.118,102.195-337.939,20.836-350.229,14.995"/>
		<path class="st0" d="M296.995,421.717c-12.487,30.776-54.441,122.605-155.812,176.984
			c-166.646,89.396-338.532-5.743-350.326-12.53"/>
		<path class="st0" d="M296.961,421.695c-14.863,29.701-63.893,117.955-169.218,164.214
			c-173.146,76.045-337.038-32.286-348.263-39.978"/>
		<path class="st0" d="M296.93,421.671c-17.147,28.443-72.951,112.579-181.58,150.431c-178.579,62.226-333.466-58.63-344.053-67.179
			"/>
		<path class="st0" d="M296.9,421.644c-19.326,27.01-81.559,106.508-192.823,135.72c-182.911,48.023-327.838-84.613-337.721-93.966"
			/>
		<path class="st0" d="M296.873,421.615c-21.386,25.411-89.664,99.781-202.877,120.173
			c-186.115,33.524-320.188-110.074-329.308-120.173"/>
		<path class="st0" d="M296.848,421.584c-23.313,23.655-97.216,92.438-211.68,103.885
			c-188.171,18.818-310.565-134.856-318.864-145.64"/>
		<path class="st0" d="M296.825,421.551c-25.098,21.752-104.169,84.526-219.179,86.957
			c-189.067,3.996-299.027-158.807-306.454-170.209"/>
		<path class="st0" d="M296.805,421.516c-26.727,19.716-110.48,76.092-225.326,69.492
			c-188.798-10.85-285.645-181.779-292.155-193.728"/>
		<path class="st0" d="M296.788,421.48c-28.191,17.559-116.109,67.19-230.083,51.599C-120.66,447.45-203.798,269.45-209.35,257.026"
			/>
		<path class="st0" d="M296.774,421.443c-29.482,15.293-121.023,57.873-233.422,33.388
			c-184.776-40.251-253.692-224.226-258.252-237.046"/>
		<path class="st0" d="M296.762,421.405c-30.591,12.932-125.19,48.199-235.322,14.971
			c-181.049-54.624-235.318-243.439-238.858-256.578"/>
		<path class="st0" d="M296.754,421.366c-31.511,10.492-128.586,38.228-235.772-3.538
			C-115.222,349.167-154.51,156.676-157.008,143.3"/>
		<path class="st0" d="M296.749,421.326c-32.237,7.988-131.189,28.021-234.767-22.026
			c-170.275-82.274-194.338-277.253-195.779-290.784"/>
		<path class="st0" d="M296.747,421.286c-32.765,5.434-132.983,17.642-232.315-40.378C-98.863,285.529-107.555,89.262-107.93,75.66"
			/>
		<path class="st0" d="M296.748,421.246c-33.09,2.846-133.957,7.154-228.431-58.48C-86.991,254.868-80.257,58.525-79.564,44.935"/>
		<path class="st0" d="M296.752,421.207c-33.211,0.241-134.106-3.378-223.139-76.223C-72.75,225.234-50.632,30.024-48.874,16.53"/>
		<path class="st0" d="M296.759,421.167c-33.128-2.365-133.427-13.89-216.47-93.495C-56.228,196.808-18.862,3.935-16.051-9.379"/>
		<path class="st0" d="M296.77,421.129c-32.84-4.957-131.926-24.316-208.468-110.191C-37.526,169.766,14.857-19.581,18.704-32.633"
			/>
		<path class="st0" d="M296.783,421.091c-32.35-7.519-129.612-34.591-199.18-126.207C-16.761,144.274,50.317-40.378,55.176-53.089"
			/>
		<path class="st0" d="M296.799,421.055c-31.66-10.034-126.498-44.654-188.663-141.446C5.941,120.491,87.3-58.33,93.141-70.62"/>
		<path class="st0" d="M296.818,421.02c-30.776-12.487-122.605-54.441-176.984-155.812c-89.396-166.646,5.743-338.532,12.53-350.326
			"/>
		<path class="st0" d="M296.84,420.986c-29.701-14.863-117.955-63.893-164.214-169.218C56.581,78.622,164.912-85.269,172.604-96.494
			"/>
		<path class="st0" d="M296.864,420.955c-28.443-17.147-112.579-72.951-150.431-181.58
			c-62.226-178.579,58.63-333.466,67.179-344.053"/>
		<path class="st0" d="M296.891,420.925c-27.01-19.326-106.508-81.559-135.72-192.823
			c-48.023-182.911,84.613-327.838,93.966-337.721"/>
		<path class="st0" d="M296.92,420.897c-25.411-21.386-99.781-89.664-120.173-202.877C143.223,31.906,286.82-102.168,296.92-111.287
			"/>
		<path class="st0" d="M296.951,420.872c-23.655-23.313-92.438-97.216-103.885-211.68
			c-18.818-188.171,134.856-310.565,145.64-318.864"/>
		<path class="st0" d="M296.984,420.85c-21.752-25.098-84.526-104.169-86.957-219.179
			C206.031,12.604,368.834-97.356,380.236-104.783"/>
		<path class="st0" d="M297.019,420.83c-19.716-26.727-76.092-110.48-69.492-225.326C238.376,6.706,409.305-90.141,421.255-96.651"
			/>
		<path class="st0" d="M297.055,420.813c-17.559-28.191-67.19-116.109-51.599-230.083C271.085,3.365,449.086-79.773,461.509-85.325"
			/>
		<path class="st0" d="M297.092,420.798c-15.293-29.482-57.873-121.023-33.388-233.422C303.955,2.6,487.93-66.316,500.75-70.876"/>
		<path class="st0" d="M297.13,420.787c-12.932-30.591-48.199-125.19-14.971-235.322C336.784,4.416,525.598-49.853,538.737-53.393"
			/>
		<path class="st0" d="M297.169,420.779c-10.492-31.511-38.228-128.586,3.538-235.772C369.369,8.802,561.859-30.485,575.235-32.983"
			/>
		<path class="st0" d="M297.209,420.774c-7.988-32.237-28.021-131.189,22.026-234.767C401.509,15.732,596.488-8.332,610.019-9.773"
			/>
		<path class="st0" d="M297.249,420.771c-5.434-32.765-17.642-132.983,40.378-232.315C433.006,25.162,629.273,16.47,642.875,16.095"
			/>
		<path class="st0" d="M297.289,420.773c-2.846-33.09-7.154-133.957,58.48-228.431C463.667,37.034,660.01,43.768,673.6,44.461"/>
		<path class="st0" d="M297.329,420.777c-0.241-33.211,3.378-134.106,76.223-223.139C493.302,51.275,688.511,73.393,702.005,75.15"
			/>
		<path class="st0" d="M297.368,420.784c2.365-33.128,13.89-133.427,93.495-216.47c130.865-136.517,323.737-99.151,337.052-96.34"/>
		<path class="st0" d="M297.406,420.794c4.957-32.84,24.316-131.926,110.191-208.468c141.173-125.828,330.519-73.445,343.571-69.598
			"/>
		<path class="st0" d="M297.444,420.808c7.519-32.35,34.591-129.612,126.207-199.18c150.61-114.364,335.262-47.286,347.973-42.427"
			/>
		<path class="st0" d="M297.48,420.824c10.034-31.66,44.654-126.498,141.446-188.663c159.118-102.195,337.939-20.836,350.229-14.995
			"/>
		<path class="st0" d="M297.516,420.843c12.487-30.776,54.441-122.605,155.812-176.984c166.646-89.396,338.532,5.743,350.326,12.53"
			/>
		<path class="st0" d="M297.549,420.865c14.863-29.701,63.893-117.955,169.218-164.214
			c173.146-76.045,337.038,32.286,348.263,39.978"/>
		<path class="st0" d="M297.581,420.889c17.147-28.443,72.951-112.579,181.58-150.431c178.579-62.226,333.466,58.63,344.053,67.179"
			/>
		<path class="st0" d="M297.61,420.916c19.326-27.01,81.559-106.508,192.823-135.72c182.911-48.023,327.838,84.613,337.721,93.966"
			/>
		<path class="st0" d="M297.638,420.945c21.386-25.411,89.664-99.781,202.877-120.173
			c186.115-33.524,320.188,110.074,329.308,120.173"/>
	</g>
</g>
</svg>
