<svg xmlns="http://www.w3.org/2000/svg" xmlns:xlink="http://www.w3.org/1999/xlink" viewBox="0 0 595.276 841.89" style=" 
	fill:none;
	stroke: rgba(255, 255, 255, 0.2);
">
	<rect x="-226.42" y="-103.113" width="1048.115" height="1048.115" />
	<rect x="-158.064" y="-34.757" transform="matrix(0.0785 -0.9969 0.9969 0.0785 -145.3618 684.6382)"
	width="911.404" height="911.404" />
	<rect x="-98.625" y="24.682" transform="matrix(0.1564 -0.9877 0.9877 0.1564 -164.6854 649.068)"
	width="792.525" height="792.525" />
	<rect x="-46.938" y="76.369" transform="matrix(0.2334 -0.9724 0.9724 0.2334 -181.1585 612.0913)"
	width="689.153" height="689.153" />
	<rect x="-1.994" y="121.313" transform="matrix(0.309 -0.9511 0.9511 0.309 -194.6797 573.9361)"
	width="599.263" height="599.263" />
	<rect x="37.089" y="160.396" transform="matrix(0.3827 -0.9239 0.9239 0.3827 -205.1656 534.8377)"
	width="521.098" height="521.098" />
	<rect x="71.073" y="194.38" transform="matrix(0.454 -0.891 0.891 0.454 -212.5516 495.0371)"
	width="453.129" height="453.129" />
	<rect x="100.625" y="223.932" transform="matrix(0.5225 -0.8526 0.8526 0.5225 -216.792 454.7797)"
	width="394.025" height="394.025" />
	<rect x="126.323" y="249.63" transform="matrix(0.5878 -0.809 0.809 0.5878 -217.8609 414.3137)"
	width="342.631" height="342.631" />
	<rect x="148.668" y="271.975" transform="matrix(0.6494 -0.7604 0.7604 0.6494 -215.7515 373.8886)"
	width="297.94" height="297.94" />
	<rect x="168.099" y="291.406" transform="matrix(0.7071 -0.7071 0.7071 0.7071 -210.4769 333.7536)"
	width="259.078" height="259.078" />
	<rect x="184.995" y="308.302" transform="matrix(0.7604 -0.6494 0.6494 0.7604 -202.0696 294.1562)"
	width="225.285" height="225.285" />
	<rect x="199.688" y="322.995" transform="matrix(0.809 -0.5878 0.5878 0.809 -190.5814 255.3404)"
	width="195.9" height="195.9" />
	<rect x="212.464" y="335.771" transform="matrix(0.8526 -0.5225 0.5225 0.8526 -176.0832 217.5457)"
	width="170.348" height="170.348" />
	<rect x="223.573" y="346.881" transform="matrix(0.891 -0.454 0.454 0.891 -158.6644 181.005)"
	width="148.129" height="148.129" />
	<rect x="233.234" y="356.541" transform="matrix(0.9239 -0.3827 0.3827 0.9239 -138.4323 145.9436)"
	width="128.808" height="128.808" />
	<rect x="241.635" y="364.942" transform="matrix(0.9511 -0.309 0.309 0.9511 -115.5117 112.5776)"
	width="112.007" height="112.007" />
	<rect x="248.939" y="372.246" transform="matrix(0.9724 -0.2334 0.2334 0.9724 -90.0439 81.1129)"
	width="97.397" height="97.397" />
	<rect x="255.291" y="378.598" transform="matrix(0.9877 -0.1564 0.1564 0.9877 -62.1859 51.7433)"
	width="84.693" height="84.693" />
	<rect x="260.815" y="384.122" transform="matrix(0.9969 -0.0785 0.0785 0.9969 -32.1094 24.65)"
	width="73.646" height="73.646" />
	<rect x="265.618" y="388.925" width="64.04" height="64.04" />
</svg>
