<svg xmlns="http://www.w3.org/2000/svg" xmlns:xlink="http://www.w3.org/1999/xlink" viewBox="0 0 595.276 841.89" x="0px" y="0px" width='595.276' height='841.89' xml:space="preserve" style="
	stroke: rgba(97, 152, 165, 0.33);
">
<path d="M297.638,420.945v-589.033 M297.638,420.945l92.145-581.781 M479.659-139.259L297.638,420.945 M297.638,420.945
	l267.415-524.833 M297.638,420.945L643.863-55.593 M297.638,420.945L714.147,4.435 M297.638,420.945L774.176,74.719
	 M297.638,420.945l524.833-267.416 M297.638,420.945l560.204-182.022 M297.638,420.945l581.782-92.146 M297.638,420.945
	l581.782-92.146 M297.638,420.945h-589.033 M297.638,420.945L-284.144,328.8 M-262.566,238.924l560.204,182.021 M-227.195,153.53
	l524.833,267.415 M297.638,420.945L-178.9,74.72 M297.638,420.945L-118.872,4.436 M297.638,420.945L-48.588-55.593 M297.638,420.945
	L30.222-103.888 M115.616-139.26l182.022,560.204 M297.638,420.945l-92.146-581.782 M297.638,420.945l-92.146-581.782
	 M297.638,420.945v589.033 M297.638,420.945l-92.145,581.781 M297.638,420.945L115.617,981.149 M297.638,420.945L30.222,945.778
	 M-48.587,897.483l346.225-476.538 M297.638,420.945l-416.509,416.51 M297.638,420.945L-178.9,767.171 M297.638,420.945
	l-524.833,267.416 M297.638,420.945l-560.204,182.022 M297.638,420.945l-581.782,92.146 M297.638,420.945l-581.782,92.146
	 M297.638,420.945h589.033 M297.638,420.945l581.781,92.145 M297.638,420.945l560.204,182.021 M297.638,420.945L822.471,688.36
	 M297.638,420.945L774.176,767.17 M714.148,837.454l-416.51-416.509 M297.638,420.945l346.226,476.538 M565.054,945.778
	L297.638,420.945 M297.638,420.945L479.66,981.149 M389.784,1002.727l-92.146-581.782 M389.784,1002.727l-92.146-581.782
	 M297.638,420.945l-46.215-587.218 M297.638,420.945l46.215-587.218 M297.638,420.945l137.507-572.758 M523.051-123.251
	L297.638,420.945 M297.638,420.945L605.407-81.289 M297.638,420.945L680.184-26.96 M297.638,420.945L745.542,38.398
	 M297.638,420.945l502.234-307.77 M297.638,420.945l544.196-225.414 M297.638,420.945l572.759-137.508 M297.638,420.945
	l572.759-137.508 M297.638,420.945L-289.58,467.16 M297.638,420.945L-289.58,374.73 M-275.121,283.438l572.758,137.507
	 M297.638,420.945l-544.196-225.413 M297.638,420.945l-502.234-307.769 M297.638,420.945L-150.267,38.398 M297.638,420.945
	L-84.909-26.96 M-10.132-81.289l307.77,502.234 M72.224-123.251l225.414,544.196 M297.638,420.945L160.13-151.814 M297.638,420.945
	L160.13-151.814 M297.638,420.945l46.215,587.218 M297.638,420.945l-46.215,587.218 M297.638,420.945L160.131,993.703
	 M297.638,420.945L72.225,965.141 M297.638,420.945L-10.131,923.179 M297.638,420.945L-84.909,868.85 M297.638,420.945
	l-447.904,382.547 M297.638,420.945l-502.234,307.77 M-246.558,646.359l544.196-225.414 M297.638,420.945l-572.759,137.508
	 M297.638,420.945l-572.759,137.508 M297.638,420.945l587.218-46.215 M884.855,467.16l-587.218-46.215 M297.638,420.945
	l572.758,137.507 M297.638,420.945l544.196,225.413 M297.638,420.945l502.234,307.769 M297.638,420.945l447.905,382.546
	 M297.638,420.945l382.547,447.904 M297.638,420.945l307.77,502.234 M297.638,420.945l225.414,544.196 M435.146,993.704
	L297.638,420.945 M435.146,993.704L297.638,420.945"/>
</svg>
