<svg xmlns="http://www.w3.org/2000/svg" xmlns:xlink="http://www.w3.org/1999/xlink" viewBox="0 0 225.955 225.955">
	<path d="M198.629,64.504L122.55,3.236C119.957,1.149,116.546,0,112.927,0c-3.62,0-7.036,1.149-9.629,3.236L27.281,64.504
		c-4.982,4.01-8.804,12.163-8.804,18.561v129.59c0,7.135,5.647,13.301,12.781,13.301h163.354c7.135,0,12.864-6.166,12.864-13.301
		V83.064C207.478,76.667,203.611,68.515,198.629,64.504z M182.478,89.489l-67.765,56.933c-1.09,0.91-3.023,0.909-4.112,0.001
		L42.478,89.582V60.955h140V89.489z"/>
	<path d="M75.606,97.955h75.409c7.606,0,13.462-5.528,13.462-12.323v-0.354c0-6.795-5.855-12.323-13.462-12.323H75.606
		c-7.607,0-14.129,5.528-14.129,12.323v0.354C61.478,92.427,67.999,97.955,75.606,97.955z"/>
</svg>
