            <svg  viewBox="0 0 552.97 947.42">
                <path fill='var(--peg-color)'
                    d="M1169.75,441.65c-7.59-1.54-14.93-2.88-22.21-4.53A271.49,271.49,0,0,1,1039,385.49a272.57,272.57,0,0,1-77.85-95.57c-21.56-43.81-31-90.15-27.66-138.88,5.21-76.25,36.7-139.9,93.79-190.53,39.08-34.67,84.81-56.28,136.49-64.52,71.89-11.47,138.75,2.44,199.18,43.07,61.7,41.49,100.79,99.19,116.38,171.92,13.49,62.92,6,123.89-23.49,181.13-39.42,76.42-101.65,124.72-185.38,145.05-6.29,1.53-12.7,2.6-19.1,3.67-2.15.36-3.13,1.11-2.85,3.34a24.83,24.83,0,0,1,0,3V799.05c0,21.89-15.52,38.77-37.1,40.38-20.08,1.5-38-13.16-41.36-33.93a37.16,37.16,0,0,1-.28-6q0-176.49,0-353Z"
                    transform="translate(-932.81 107.89)" />
                    <path style="fill: white;"
                    d="M1208-65.18c26.88,1.12,48.09,6.16,66.75,19.46a58.69,58.69,0,0,1,17.63,19.1c9.45,16.91,7,36-6.55,50.81S1255,46.76,1235.75,50.63c-28.27,5.68-55.66,3.09-81.62-10.09a68.57,68.57,0,0,1-25.31-21.21c-12.65-17.7-10.73-39.77,4.8-56.09,14.19-14.89,32.19-22.41,52-26C1194.41-64.3,1203.43-64.7,1208-65.18Z"
                    transform="translate(-932.81 107.89)" />
            </svg>
